<?xml version="1.0" encoding="UTF-8" standalone="no"?>
<!DOCTYPE svg PUBLIC "-//W3C//DTD SVG 1.1//EN"
 "http://www.w3.org/Graphics/SVG/1.1/DTD/svg11.dtd">
<!-- Generated by graphviz version 2.38.0 (20140413.2041)
 -->
<!-- Title: Tree Pages: 1 -->
<svg width="1125pt" height="373pt"
 viewBox="0.00 0.00 1124.50 373.00" xmlns="http://www.w3.org/2000/svg" xmlns:xlink="http://www.w3.org/1999/xlink">
<g id="graph0" class="graph" transform="scale(1 1) rotate(0) translate(4 369)">
<title>Tree</title>
<polygon fill="white" stroke="none" points="-4,4 -4,-369 1120.5,-369 1120.5,4 -4,4"/>
<!-- 0 -->
<g id="node1" class="node"><title>0</title>
<path fill="#e58139" fill-opacity="0.333333" stroke="black" d="M651,-365C651,-365 487,-365 487,-365 481,-365 475,-359 475,-353 475,-353 475,-309 475,-309 475,-303 481,-297 487,-297 487,-297 651,-297 651,-297 657,-297 663,-303 663,-309 663,-309 663,-353 663,-353 663,-359 657,-365 651,-365"/>
<text text-anchor="middle" x="569" y="-349.8" font-family="Helvetica,sans-Serif" font-size="14.00">Invested Capital &lt;= 16.359</text>
<text text-anchor="middle" x="569" y="-334.8" font-family="Helvetica,sans-Serif" font-size="14.00">mae = 1.039</text>
<text text-anchor="middle" x="569" y="-319.8" font-family="Helvetica,sans-Serif" font-size="14.00">samples = 100.0%</text>
<text text-anchor="middle" x="569" y="-304.8" font-family="Helvetica,sans-Serif" font-size="14.00">value = 15.998</text>
</g>
<!-- 1 -->
<g id="node2" class="node"><title>1</title>
<path fill="#e58139" fill-opacity="0.098039" stroke="black" d="M580,-261C580,-261 296,-261 296,-261 290,-261 284,-255 284,-249 284,-249 284,-205 284,-205 284,-199 290,-193 296,-193 296,-193 580,-193 580,-193 586,-193 592,-199 592,-205 592,-205 592,-249 592,-249 592,-255 586,-261 580,-261"/>
<text text-anchor="middle" x="438" y="-245.8" font-family="Helvetica,sans-Serif" font-size="14.00">Net Income Continuous Operations &lt;= 20.796</text>
<text text-anchor="middle" x="438" y="-230.8" font-family="Helvetica,sans-Serif" font-size="14.00">mae = 0.722</text>
<text text-anchor="middle" x="438" y="-215.8" font-family="Helvetica,sans-Serif" font-size="14.00">samples = 51.8%</text>
<text text-anchor="middle" x="438" y="-200.8" font-family="Helvetica,sans-Serif" font-size="14.00">value = 15.274</text>
</g>
<!-- 0&#45;&gt;1 -->
<g id="edge1" class="edge"><title>0&#45;&gt;1</title>
<path fill="none" stroke="black" d="M526.468,-296.884C514.456,-287.531 501.264,-277.259 488.818,-267.568"/>
<polygon fill="black" stroke="black" points="490.807,-264.681 480.767,-261.299 486.507,-270.205 490.807,-264.681"/>
<text text-anchor="middle" x="483.855" y="-282.408" font-family="Helvetica,sans-Serif" font-size="14.00">True</text>
</g>
<!-- 8 -->
<g id="node9" class="node"><title>8</title>
<path fill="#e58139" fill-opacity="0.607843" stroke="black" d="M763,-261C763,-261 637,-261 637,-261 631,-261 625,-255 625,-249 625,-249 625,-205 625,-205 625,-199 631,-193 637,-193 637,-193 763,-193 763,-193 769,-193 775,-199 775,-205 775,-205 775,-249 775,-249 775,-255 769,-261 763,-261"/>
<text text-anchor="middle" x="700" y="-245.8" font-family="Helvetica,sans-Serif" font-size="14.00">Employee &lt;= 10.636</text>
<text text-anchor="middle" x="700" y="-230.8" font-family="Helvetica,sans-Serif" font-size="14.00">mae = 0.983</text>
<text text-anchor="middle" x="700" y="-215.8" font-family="Helvetica,sans-Serif" font-size="14.00">samples = 48.2%</text>
<text text-anchor="middle" x="700" y="-200.8" font-family="Helvetica,sans-Serif" font-size="14.00">value = 16.838</text>
</g>
<!-- 0&#45;&gt;8 -->
<g id="edge8" class="edge"><title>0&#45;&gt;8</title>
<path fill="none" stroke="black" d="M611.532,-296.884C623.544,-287.531 636.736,-277.259 649.182,-267.568"/>
<polygon fill="black" stroke="black" points="651.493,-270.205 657.233,-261.299 647.193,-264.681 651.493,-270.205"/>
<text text-anchor="middle" x="654.145" y="-282.408" font-family="Helvetica,sans-Serif" font-size="14.00">False</text>
</g>
<!-- 2 -->
<g id="node3" class="node"><title>2</title>
<path fill="#e58139" fill-opacity="0.023529" stroke="black" d="M298,-157C298,-157 114,-157 114,-157 108,-157 102,-151 102,-145 102,-145 102,-101 102,-101 102,-95 108,-89 114,-89 114,-89 298,-89 298,-89 304,-89 310,-95 310,-101 310,-101 310,-145 310,-145 310,-151 304,-157 298,-157"/>
<text text-anchor="middle" x="206" y="-141.8" font-family="Helvetica,sans-Serif" font-size="14.00">Operating Expense &lt;= 14.925</text>
<text text-anchor="middle" x="206" y="-126.8" font-family="Helvetica,sans-Serif" font-size="14.00">mae = 0.581</text>
<text text-anchor="middle" x="206" y="-111.8" font-family="Helvetica,sans-Serif" font-size="14.00">samples = 38.4%</text>
<text text-anchor="middle" x="206" y="-96.8" font-family="Helvetica,sans-Serif" font-size="14.00">value = 15.052</text>
</g>
<!-- 1&#45;&gt;2 -->
<g id="edge2" class="edge"><title>1&#45;&gt;2</title>
<path fill="none" stroke="black" d="M362.676,-192.884C339.666,-182.767 314.21,-171.575 290.626,-161.206"/>
<polygon fill="black" stroke="black" points="291.906,-157.946 281.343,-157.125 289.088,-164.354 291.906,-157.946"/>
</g>
<!-- 5 -->
<g id="node6" class="node"><title>5</title>
<path fill="#e58139" fill-opacity="0.400000" stroke="black" d="M505.5,-157C505.5,-157 370.5,-157 370.5,-157 364.5,-157 358.5,-151 358.5,-145 358.5,-145 358.5,-101 358.5,-101 358.5,-95 364.5,-89 370.5,-89 370.5,-89 505.5,-89 505.5,-89 511.5,-89 517.5,-95 517.5,-101 517.5,-101 517.5,-145 517.5,-145 517.5,-151 511.5,-157 505.5,-157"/>
<text text-anchor="middle" x="438" y="-141.8" font-family="Helvetica,sans-Serif" font-size="14.00">Net Income &lt;= 20.799</text>
<text text-anchor="middle" x="438" y="-126.8" font-family="Helvetica,sans-Serif" font-size="14.00">mae = 0.655</text>
<text text-anchor="middle" x="438" y="-111.8" font-family="Helvetica,sans-Serif" font-size="14.00">samples = 13.5%</text>
<text text-anchor="middle" x="438" y="-96.8" font-family="Helvetica,sans-Serif" font-size="14.00">value = 16.205</text>
</g>
<!-- 1&#45;&gt;5 -->
<g id="edge5" class="edge"><title>1&#45;&gt;5</title>
<path fill="none" stroke="black" d="M438,-192.884C438,-184.778 438,-175.982 438,-167.472"/>
<polygon fill="black" stroke="black" points="441.5,-167.299 438,-157.299 434.5,-167.299 441.5,-167.299"/>
</g>
<!-- 3 -->
<g id="node4" class="node"><title>3</title>
<path fill="none" stroke="black" d="M116,-53C116,-53 12,-53 12,-53 6,-53 0,-47 0,-41 0,-41 0,-12 0,-12 0,-6 6,-0 12,-0 12,-0 116,-0 116,-0 122,-0 128,-6 128,-12 128,-12 128,-41 128,-41 128,-47 122,-53 116,-53"/>
<text text-anchor="middle" x="64" y="-37.8" font-family="Helvetica,sans-Serif" font-size="14.00">mae = 0.497</text>
<text text-anchor="middle" x="64" y="-22.8" font-family="Helvetica,sans-Serif" font-size="14.00">samples = 31.2%</text>
<text text-anchor="middle" x="64" y="-7.8" font-family="Helvetica,sans-Serif" font-size="14.00">value = 14.981</text>
</g>
<!-- 2&#45;&gt;3 -->
<g id="edge3" class="edge"><title>2&#45;&gt;3</title>
<path fill="none" stroke="black" d="M156.335,-88.9485C141.627,-79.1601 125.572,-68.4756 111.035,-58.8015"/>
<polygon fill="black" stroke="black" points="112.937,-55.8632 102.673,-53.2367 109.059,-61.6907 112.937,-55.8632"/>
</g>
<!-- 4 -->
<g id="node5" class="node"><title>4</title>
<path fill="#e58139" fill-opacity="0.227451" stroke="black" d="M253.5,-53C253.5,-53 158.5,-53 158.5,-53 152.5,-53 146.5,-47 146.5,-41 146.5,-41 146.5,-12 146.5,-12 146.5,-6 152.5,-0 158.5,-0 158.5,-0 253.5,-0 253.5,-0 259.5,-0 265.5,-6 265.5,-12 265.5,-12 265.5,-41 265.5,-41 265.5,-47 259.5,-53 253.5,-53"/>
<text text-anchor="middle" x="206" y="-37.8" font-family="Helvetica,sans-Serif" font-size="14.00">mae = 0.766</text>
<text text-anchor="middle" x="206" y="-22.8" font-family="Helvetica,sans-Serif" font-size="14.00">samples = 7.1%</text>
<text text-anchor="middle" x="206" y="-7.8" font-family="Helvetica,sans-Serif" font-size="14.00">value = 15.672</text>
</g>
<!-- 2&#45;&gt;4 -->
<g id="edge4" class="edge"><title>2&#45;&gt;4</title>
<path fill="none" stroke="black" d="M206,-88.9485C206,-80.7153 206,-71.848 206,-63.4814"/>
<polygon fill="black" stroke="black" points="209.5,-63.2367 206,-53.2367 202.5,-63.2367 209.5,-63.2367"/>
</g>
<!-- 6 -->
<g id="node7" class="node"><title>6</title>
<path fill="#e58139" fill-opacity="0.356863" stroke="black" d="M400,-53C400,-53 296,-53 296,-53 290,-53 284,-47 284,-41 284,-41 284,-12 284,-12 284,-6 290,-0 296,-0 296,-0 400,-0 400,-0 406,-0 412,-6 412,-12 412,-12 412,-41 412,-41 412,-47 406,-53 400,-53"/>
<text text-anchor="middle" x="348" y="-37.8" font-family="Helvetica,sans-Serif" font-size="14.00">mae = 0.569</text>
<text text-anchor="middle" x="348" y="-22.8" font-family="Helvetica,sans-Serif" font-size="14.00">samples = 10.7%</text>
<text text-anchor="middle" x="348" y="-7.8" font-family="Helvetica,sans-Serif" font-size="14.00">value = 16.067</text>
</g>
<!-- 5&#45;&gt;6 -->
<g id="edge6" class="edge"><title>5&#45;&gt;6</title>
<path fill="none" stroke="black" d="M406.522,-88.9485C397.81,-79.8005 388.352,-69.8697 379.631,-60.7126"/>
<polygon fill="black" stroke="black" points="381.942,-58.0643 372.511,-53.2367 376.873,-62.8919 381.942,-58.0643"/>
</g>
<!-- 7 -->
<g id="node8" class="node"><title>7</title>
<path fill="#e58139" fill-opacity="0.690196" stroke="black" d="M537.5,-53C537.5,-53 442.5,-53 442.5,-53 436.5,-53 430.5,-47 430.5,-41 430.5,-41 430.5,-12 430.5,-12 430.5,-6 436.5,-0 442.5,-0 442.5,-0 537.5,-0 537.5,-0 543.5,-0 549.5,-6 549.5,-12 549.5,-12 549.5,-41 549.5,-41 549.5,-47 543.5,-53 537.5,-53"/>
<text text-anchor="middle" x="490" y="-37.8" font-family="Helvetica,sans-Serif" font-size="14.00">mae = 0.579</text>
<text text-anchor="middle" x="490" y="-22.8" font-family="Helvetica,sans-Serif" font-size="14.00">samples = 2.8%</text>
<text text-anchor="middle" x="490" y="-7.8" font-family="Helvetica,sans-Serif" font-size="14.00">value = 17.088</text>
</g>
<!-- 5&#45;&gt;7 -->
<g id="edge7" class="edge"><title>5&#45;&gt;7</title>
<path fill="none" stroke="black" d="M456.187,-88.9485C460.969,-80.2579 466.14,-70.8608 470.965,-62.0917"/>
<polygon fill="black" stroke="black" points="474.083,-63.6853 475.838,-53.2367 467.951,-60.3105 474.083,-63.6853"/>
</g>
<!-- 9 -->
<g id="node10" class="node"><title>9</title>
<path fill="#e58139" fill-opacity="0.494118" stroke="black" d="M781.5,-157C781.5,-157 618.5,-157 618.5,-157 612.5,-157 606.5,-151 606.5,-145 606.5,-145 606.5,-101 606.5,-101 606.5,-95 612.5,-89 618.5,-89 618.5,-89 781.5,-89 781.5,-89 787.5,-89 793.5,-95 793.5,-101 793.5,-101 793.5,-145 793.5,-145 793.5,-151 787.5,-157 781.5,-157"/>
<text text-anchor="middle" x="700" y="-141.8" font-family="Helvetica,sans-Serif" font-size="14.00">Diluted EPS (ttm) &lt;= 4.189</text>
<text text-anchor="middle" x="700" y="-126.8" font-family="Helvetica,sans-Serif" font-size="14.00">mae = 0.846</text>
<text text-anchor="middle" x="700" y="-111.8" font-family="Helvetica,sans-Serif" font-size="14.00">samples = 32.0%</text>
<text text-anchor="middle" x="700" y="-96.8" font-family="Helvetica,sans-Serif" font-size="14.00">value = 16.492</text>
</g>
<!-- 8&#45;&gt;9 -->
<g id="edge9" class="edge"><title>8&#45;&gt;9</title>
<path fill="none" stroke="black" d="M700,-192.884C700,-184.778 700,-175.982 700,-167.472"/>
<polygon fill="black" stroke="black" points="703.5,-167.299 700,-157.299 696.5,-167.299 703.5,-167.299"/>
</g>
<!-- 12 -->
<g id="node13" class="node"><title>12</title>
<path fill="#e58139" fill-opacity="0.866667" stroke="black" d="M1001,-157C1001,-157 839,-157 839,-157 833,-157 827,-151 827,-145 827,-145 827,-101 827,-101 827,-95 833,-89 839,-89 839,-89 1001,-89 1001,-89 1007,-89 1013,-95 1013,-101 1013,-101 1013,-145 1013,-145 1013,-151 1007,-157 1001,-157"/>
<text text-anchor="middle" x="920" y="-141.8" font-family="Helvetica,sans-Serif" font-size="14.00">Free Cash Flow &lt;= 23.221</text>
<text text-anchor="middle" x="920" y="-126.8" font-family="Helvetica,sans-Serif" font-size="14.00">mae = 0.922</text>
<text text-anchor="middle" x="920" y="-111.8" font-family="Helvetica,sans-Serif" font-size="14.00">samples = 16.1%</text>
<text text-anchor="middle" x="920" y="-96.8" font-family="Helvetica,sans-Serif" font-size="14.00">value = 17.627</text>
</g>
<!-- 8&#45;&gt;12 -->
<g id="edge12" class="edge"><title>8&#45;&gt;12</title>
<path fill="none" stroke="black" d="M771.428,-192.884C793.151,-182.812 817.173,-171.674 839.455,-161.344"/>
<polygon fill="black" stroke="black" points="840.954,-164.506 848.554,-157.125 838.01,-158.156 840.954,-164.506"/>
</g>
<!-- 10 -->
<g id="node11" class="node"><title>10</title>
<path fill="#e58139" fill-opacity="0.388235" stroke="black" d="M684,-53C684,-53 580,-53 580,-53 574,-53 568,-47 568,-41 568,-41 568,-12 568,-12 568,-6 574,-0 580,-0 580,-0 684,-0 684,-0 690,-0 696,-6 696,-12 696,-12 696,-41 696,-41 696,-47 690,-53 684,-53"/>
<text text-anchor="middle" x="632" y="-37.8" font-family="Helvetica,sans-Serif" font-size="14.00">mae = 0.754</text>
<text text-anchor="middle" x="632" y="-22.8" font-family="Helvetica,sans-Serif" font-size="14.00">samples = 16.9%</text>
<text text-anchor="middle" x="632" y="-7.8" font-family="Helvetica,sans-Serif" font-size="14.00">value = 16.167</text>
</g>
<!-- 9&#45;&gt;10 -->
<g id="edge10" class="edge"><title>9&#45;&gt;10</title>
<path fill="none" stroke="black" d="M676.217,-88.9485C669.832,-80.0749 662.916,-70.4648 656.493,-61.5388"/>
<polygon fill="black" stroke="black" points="659.201,-59.3094 650.52,-53.2367 653.519,-63.398 659.201,-59.3094"/>
</g>
<!-- 11 -->
<g id="node12" class="node"><title>11</title>
<path fill="#e58139" fill-opacity="0.619608" stroke="black" d="M830,-53C830,-53 726,-53 726,-53 720,-53 714,-47 714,-41 714,-41 714,-12 714,-12 714,-6 720,-0 726,-0 726,-0 830,-0 830,-0 836,-0 842,-6 842,-12 842,-12 842,-41 842,-41 842,-47 836,-53 830,-53"/>
<text text-anchor="middle" x="778" y="-37.8" font-family="Helvetica,sans-Serif" font-size="14.00">mae = 0.86</text>
<text text-anchor="middle" x="778" y="-22.8" font-family="Helvetica,sans-Serif" font-size="14.00">samples = 15.1%</text>
<text text-anchor="middle" x="778" y="-7.8" font-family="Helvetica,sans-Serif" font-size="14.00">value = 16.871</text>
</g>
<!-- 9&#45;&gt;11 -->
<g id="edge11" class="edge"><title>9&#45;&gt;11</title>
<path fill="none" stroke="black" d="M727.281,-88.9485C734.756,-79.892 742.864,-70.0682 750.36,-60.9875"/>
<polygon fill="black" stroke="black" points="753.091,-63.1769 756.757,-53.2367 747.692,-58.721 753.091,-63.1769"/>
</g>
<!-- 13 -->
<g id="node14" class="node"><title>13</title>
<path fill="#e58139" fill-opacity="0.654902" stroke="black" d="M967.5,-53C967.5,-53 872.5,-53 872.5,-53 866.5,-53 860.5,-47 860.5,-41 860.5,-41 860.5,-12 860.5,-12 860.5,-6 866.5,-0 872.5,-0 872.5,-0 967.5,-0 967.5,-0 973.5,-0 979.5,-6 979.5,-12 979.5,-12 979.5,-41 979.5,-41 979.5,-47 973.5,-53 967.5,-53"/>
<text text-anchor="middle" x="920" y="-37.8" font-family="Helvetica,sans-Serif" font-size="14.00">mae = 0.83</text>
<text text-anchor="middle" x="920" y="-22.8" font-family="Helvetica,sans-Serif" font-size="14.00">samples = 6.3%</text>
<text text-anchor="middle" x="920" y="-7.8" font-family="Helvetica,sans-Serif" font-size="14.00">value = 16.981</text>
</g>
<!-- 12&#45;&gt;13 -->
<g id="edge13" class="edge"><title>12&#45;&gt;13</title>
<path fill="none" stroke="black" d="M920,-88.9485C920,-80.7153 920,-71.848 920,-63.4814"/>
<polygon fill="black" stroke="black" points="923.5,-63.2367 920,-53.2367 916.5,-63.2367 923.5,-63.2367"/>
</g>
<!-- 14 -->
<g id="node15" class="node"><title>14</title>
<path fill="#e58139" stroke="black" d="M1104.5,-53C1104.5,-53 1009.5,-53 1009.5,-53 1003.5,-53 997.5,-47 997.5,-41 997.5,-41 997.5,-12 997.5,-12 997.5,-6 1003.5,-0 1009.5,-0 1009.5,-0 1104.5,-0 1104.5,-0 1110.5,-0 1116.5,-6 1116.5,-12 1116.5,-12 1116.5,-41 1116.5,-41 1116.5,-47 1110.5,-53 1104.5,-53"/>
<text text-anchor="middle" x="1057" y="-37.8" font-family="Helvetica,sans-Serif" font-size="14.00">mae = 0.813</text>
<text text-anchor="middle" x="1057" y="-22.8" font-family="Helvetica,sans-Serif" font-size="14.00">samples = 9.8%</text>
<text text-anchor="middle" x="1057" y="-7.8" font-family="Helvetica,sans-Serif" font-size="14.00">value = 18.029</text>
</g>
<!-- 12&#45;&gt;14 -->
<g id="edge14" class="edge"><title>12&#45;&gt;14</title>
<path fill="none" stroke="black" d="M967.916,-88.9485C981.974,-79.2516 997.307,-68.6752 1011.23,-59.073"/>
<polygon fill="black" stroke="black" points="1013.44,-61.7959 1019.69,-53.2367 1009.47,-56.0337 1013.44,-61.7959"/>
</g>
</g>
</svg>
