<?xml version="1.0" encoding="UTF-8" standalone="no"?>
<!DOCTYPE svg PUBLIC "-//W3C//DTD SVG 1.1//EN"
 "http://www.w3.org/Graphics/SVG/1.1/DTD/svg11.dtd">
<!-- Generated by graphviz version 2.38.0 (20140413.2041)
 -->
<!-- Title: Tree Pages: 1 -->
<svg width="2246pt" height="414pt"
 viewBox="0.00 0.00 2245.59 414.00" xmlns="http://www.w3.org/2000/svg" xmlns:xlink="http://www.w3.org/1999/xlink">
<g id="graph0" class="graph" transform="scale(1 1) rotate(0) translate(4 410)">
<title>Tree</title>
<polygon fill="white" stroke="none" points="-4,4 -4,-410 2241.59,-410 2241.59,4 -4,4"/>
<!-- 0 -->
<g id="node1" class="node"><title>0</title>
<path fill="#e58139" fill-opacity="0.007843" stroke="black" d="M1383.14,-406C1383.14,-406 1093.17,-406 1093.17,-406 1087.17,-406 1081.17,-400 1081.17,-394 1081.17,-394 1081.17,-340 1081.17,-340 1081.17,-334 1087.17,-328 1093.17,-328 1093.17,-328 1383.14,-328 1383.14,-328 1389.14,-328 1395.14,-334 1395.14,-340 1395.14,-340 1395.14,-394 1395.14,-394 1395.14,-400 1389.14,-406 1383.14,-406"/>
<text text-anchor="middle" x="1238.15" y="-390.8" font-family="Helvetica,sans-Serif" font-size="14.00">X[999] &lt;= 0.777</text>
<text text-anchor="middle" x="1238.15" y="-376.8" font-family="Helvetica,sans-Serif" font-size="14.00">gini = 0.815</text>
<text text-anchor="middle" x="1238.15" y="-362.8" font-family="Helvetica,sans-Serif" font-size="14.00">samples = 100.0%</text>
<text text-anchor="middle" x="1238.15" y="-348.8" font-family="Helvetica,sans-Serif" font-size="14.00">value = [0.236, 0.229, 0.182, 0.114, 0.15, 0.089]</text>
<text text-anchor="middle" x="1238.15" y="-334.8" font-family="Helvetica,sans-Serif" font-size="14.00">class = bike</text>
</g>
<!-- 1 -->
<g id="node2" class="node"><title>1</title>
<path fill="#9de539" fill-opacity="0.098039" stroke="black" d="M1163.92,-292C1163.92,-292 866.38,-292 866.38,-292 860.38,-292 854.38,-286 854.38,-280 854.38,-280 854.38,-226 854.38,-226 854.38,-220 860.38,-214 866.38,-214 866.38,-214 1163.92,-214 1163.92,-214 1169.92,-214 1175.92,-220 1175.92,-226 1175.92,-226 1175.92,-280 1175.92,-280 1175.92,-286 1169.92,-292 1163.92,-292"/>
<text text-anchor="middle" x="1015.15" y="-276.8" font-family="Helvetica,sans-Serif" font-size="14.00">X[892] &lt;= 0.295</text>
<text text-anchor="middle" x="1015.15" y="-262.8" font-family="Helvetica,sans-Serif" font-size="14.00">gini = 0.788</text>
<text text-anchor="middle" x="1015.15" y="-248.8" font-family="Helvetica,sans-Serif" font-size="14.00">samples = 75.4%</text>
<text text-anchor="middle" x="1015.15" y="-234.8" font-family="Helvetica,sans-Serif" font-size="14.00">value = [0.024, 0.299, 0.223, 0.137, 0.199, 0.118]</text>
<text text-anchor="middle" x="1015.15" y="-220.8" font-family="Helvetica,sans-Serif" font-size="14.00">class = car</text>
</g>
<!-- 0&#45;&gt;1 -->
<g id="edge1" class="edge"><title>0&#45;&gt;1</title>
<path fill="none" stroke="black" d="M1162.34,-327.926C1142.33,-317.872 1120.59,-306.956 1100.12,-296.676"/>
<polygon fill="black" stroke="black" points="1101.64,-293.52 1091.13,-292.159 1098.5,-299.775 1101.64,-293.52"/>
<text text-anchor="middle" x="1098.99" y="-311.69" font-family="Helvetica,sans-Serif" font-size="14.00">True</text>
</g>
<!-- 8 -->
<g id="node9" class="node"><title>8</title>
<path fill="#e58139" fill-opacity="0.878431" stroke="black" d="M1595.81,-292C1595.81,-292 1328.49,-292 1328.49,-292 1322.49,-292 1316.49,-286 1316.49,-280 1316.49,-280 1316.49,-226 1316.49,-226 1316.49,-220 1322.49,-214 1328.49,-214 1328.49,-214 1595.81,-214 1595.81,-214 1601.81,-214 1607.81,-220 1607.81,-226 1607.81,-226 1607.81,-280 1607.81,-280 1607.81,-286 1601.81,-292 1595.81,-292"/>
<text text-anchor="middle" x="1462.15" y="-276.8" font-family="Helvetica,sans-Serif" font-size="14.00">X[1094] &lt;= 0.31</text>
<text text-anchor="middle" x="1462.15" y="-262.8" font-family="Helvetica,sans-Serif" font-size="14.00">gini = 0.213</text>
<text text-anchor="middle" x="1462.15" y="-248.8" font-family="Helvetica,sans-Serif" font-size="14.00">samples = 24.6%</text>
<text text-anchor="middle" x="1462.15" y="-234.8" font-family="Helvetica,sans-Serif" font-size="14.00">value = [0.884, 0.014, 0.058, 0.043, 0.0, 0.0]</text>
<text text-anchor="middle" x="1462.15" y="-220.8" font-family="Helvetica,sans-Serif" font-size="14.00">class = bike</text>
</g>
<!-- 0&#45;&gt;8 -->
<g id="edge8" class="edge"><title>0&#45;&gt;8</title>
<path fill="none" stroke="black" d="M1314.3,-327.926C1334.41,-317.872 1356.24,-306.956 1376.8,-296.676"/>
<polygon fill="black" stroke="black" points="1378.45,-299.762 1385.83,-292.159 1375.32,-293.501 1378.45,-299.762"/>
<text text-anchor="middle" x="1377.93" y="-311.676" font-family="Helvetica,sans-Serif" font-size="14.00">False</text>
</g>
<!-- 2 -->
<g id="node3" class="node"><title>2</title>
<path fill="#39e581" fill-opacity="0.074510" stroke="black" d="M623.171,-178C623.171,-178 333.133,-178 333.133,-178 327.133,-178 321.133,-172 321.133,-166 321.133,-166 321.133,-112 321.133,-112 321.133,-106 327.133,-100 333.133,-100 333.133,-100 623.171,-100 623.171,-100 629.171,-100 635.171,-106 635.171,-112 635.171,-112 635.171,-166 635.171,-166 635.171,-172 629.171,-178 623.171,-178"/>
<text text-anchor="middle" x="478.152" y="-162.8" font-family="Helvetica,sans-Serif" font-size="14.00">X[783] &lt;= 0.363</text>
<text text-anchor="middle" x="478.152" y="-148.8" font-family="Helvetica,sans-Serif" font-size="14.00">gini = 0.741</text>
<text text-anchor="middle" x="478.152" y="-134.8" font-family="Helvetica,sans-Serif" font-size="14.00">samples = 47.5%</text>
<text text-anchor="middle" x="478.152" y="-120.8" font-family="Helvetica,sans-Serif" font-size="14.00">value = [0.03, 0.008, 0.346, 0.165, 0.293, 0.158]</text>
<text text-anchor="middle" x="478.152" y="-106.8" font-family="Helvetica,sans-Serif" font-size="14.00">class = motorcycle</text>
</g>
<!-- 1&#45;&gt;2 -->
<g id="edge2" class="edge"><title>1&#45;&gt;2</title>
<path fill="none" stroke="black" d="M854.398,-218.472C788.416,-204.71 712.026,-188.778 645.386,-174.879"/>
<polygon fill="black" stroke="black" points="645.707,-171.371 635.203,-172.756 644.278,-178.224 645.707,-171.371"/>
</g>
<!-- 5 -->
<g id="node6" class="node"><title>5</title>
<path fill="#9de539" fill-opacity="0.776471" stroke="black" d="M1160.17,-178C1160.17,-178 870.133,-178 870.133,-178 864.133,-178 858.133,-172 858.133,-166 858.133,-166 858.133,-112 858.133,-112 858.133,-106 864.133,-100 870.133,-100 870.133,-100 1160.17,-100 1160.17,-100 1166.17,-100 1172.17,-106 1172.17,-112 1172.17,-112 1172.17,-166 1172.17,-166 1172.17,-172 1166.17,-178 1160.17,-178"/>
<text text-anchor="middle" x="1015.15" y="-162.8" font-family="Helvetica,sans-Serif" font-size="14.00">X[404] &lt;= 0.106</text>
<text text-anchor="middle" x="1015.15" y="-148.8" font-family="Helvetica,sans-Serif" font-size="14.00">gini = 0.356</text>
<text text-anchor="middle" x="1015.15" y="-134.8" font-family="Helvetica,sans-Serif" font-size="14.00">samples = 27.9%</text>
<text text-anchor="middle" x="1015.15" y="-120.8" font-family="Helvetica,sans-Serif" font-size="14.00">value = [0.013, 0.795, 0.013, 0.09, 0.038, 0.051]</text>
<text text-anchor="middle" x="1015.15" y="-106.8" font-family="Helvetica,sans-Serif" font-size="14.00">class = car</text>
</g>
<!-- 1&#45;&gt;5 -->
<g id="edge5" class="edge"><title>1&#45;&gt;5</title>
<path fill="none" stroke="black" d="M1015.15,-213.769C1015.15,-205.57 1015.15,-196.803 1015.15,-188.28"/>
<polygon fill="black" stroke="black" points="1018.65,-188.058 1015.15,-178.058 1011.65,-188.059 1018.65,-188.058"/>
</g>
<!-- 3 -->
<g id="node4" class="node"><title>3</title>
<path fill="#8139e5" fill-opacity="0.278431" stroke="black" d="M310.457,-64C310.457,-64 11.8475,-64 11.8475,-64 5.84751,-64 -0.152488,-58 -0.152488,-52 -0.152488,-52 -0.152488,-12 -0.152488,-12 -0.152488,-6 5.84751,-0 11.8475,-0 11.8475,-0 310.457,-0 310.457,-0 316.457,-0 322.457,-6 322.457,-12 322.457,-12 322.457,-52 322.457,-52 322.457,-58 316.457,-64 310.457,-64"/>
<text text-anchor="middle" x="161.152" y="-48.8" font-family="Helvetica,sans-Serif" font-size="14.00">gini = 0.679</text>
<text text-anchor="middle" x="161.152" y="-34.8" font-family="Helvetica,sans-Serif" font-size="14.00">samples = 30.7%</text>
<text text-anchor="middle" x="161.152" y="-20.8" font-family="Helvetica,sans-Serif" font-size="14.00">value = [0.023, 0.012, 0.035, 0.233, 0.453, 0.244]</text>
<text text-anchor="middle" x="161.152" y="-6.8" font-family="Helvetica,sans-Serif" font-size="14.00">class = truck</text>
</g>
<!-- 2&#45;&gt;3 -->
<g id="edge3" class="edge"><title>2&#45;&gt;3</title>
<path fill="none" stroke="black" d="M363.26,-99.9441C330.984,-89.2534 296.092,-77.6962 264.531,-67.2422"/>
<polygon fill="black" stroke="black" points="265.443,-63.8574 254.85,-64.0355 263.242,-70.5023 265.443,-63.8574"/>
</g>
<!-- 4 -->
<g id="node5" class="node"><title>4</title>
<path fill="#39e581" fill-opacity="0.909804" stroke="black" d="M603.741,-64C603.741,-64 352.564,-64 352.564,-64 346.564,-64 340.564,-58 340.564,-52 340.564,-52 340.564,-12 340.564,-12 340.564,-6 346.564,-0 352.564,-0 352.564,-0 603.741,-0 603.741,-0 609.741,-0 615.741,-6 615.741,-12 615.741,-12 615.741,-52 615.741,-52 615.741,-58 609.741,-64 603.741,-64"/>
<text text-anchor="middle" x="478.152" y="-48.8" font-family="Helvetica,sans-Serif" font-size="14.00">gini = 0.159</text>
<text text-anchor="middle" x="478.152" y="-34.8" font-family="Helvetica,sans-Serif" font-size="14.00">samples = 16.8%</text>
<text text-anchor="middle" x="478.152" y="-20.8" font-family="Helvetica,sans-Serif" font-size="14.00">value = [0.043, 0.0, 0.915, 0.043, 0.0, 0.0]</text>
<text text-anchor="middle" x="478.152" y="-6.8" font-family="Helvetica,sans-Serif" font-size="14.00">class = motorcycle</text>
</g>
<!-- 2&#45;&gt;4 -->
<g id="edge4" class="edge"><title>2&#45;&gt;4</title>
<path fill="none" stroke="black" d="M478.152,-99.7956C478.152,-91.4581 478.152,-82.6 478.152,-74.1534"/>
<polygon fill="black" stroke="black" points="481.652,-74.1171 478.152,-64.1172 474.652,-74.1172 481.652,-74.1171"/>
</g>
<!-- 6 -->
<g id="node7" class="node"><title>6</title>
<path fill="#9de539" fill-opacity="0.937255" stroke="black" d="M912.813,-64C912.813,-64 645.492,-64 645.492,-64 639.492,-64 633.492,-58 633.492,-52 633.492,-52 633.492,-12 633.492,-12 633.492,-6 639.492,-0 645.492,-0 645.492,-0 912.813,-0 912.813,-0 918.813,-0 924.813,-6 924.813,-12 924.813,-12 924.813,-52 924.813,-52 924.813,-58 918.813,-64 912.813,-64"/>
<text text-anchor="middle" x="779.152" y="-48.8" font-family="Helvetica,sans-Serif" font-size="14.00">gini = 0.118</text>
<text text-anchor="middle" x="779.152" y="-34.8" font-family="Helvetica,sans-Serif" font-size="14.00">samples = 23.2%</text>
<text text-anchor="middle" x="779.152" y="-20.8" font-family="Helvetica,sans-Serif" font-size="14.00">value = [0.0, 0.938, 0.015, 0.031, 0.0, 0.015]</text>
<text text-anchor="middle" x="779.152" y="-6.8" font-family="Helvetica,sans-Serif" font-size="14.00">class = car</text>
</g>
<!-- 5&#45;&gt;6 -->
<g id="edge6" class="edge"><title>5&#45;&gt;6</title>
<path fill="none" stroke="black" d="M929.617,-99.9441C906.314,-89.576 881.178,-78.3928 858.249,-68.1914"/>
<polygon fill="black" stroke="black" points="859.468,-64.9027 848.908,-64.0355 856.622,-71.2983 859.468,-64.9027"/>
</g>
<!-- 7 -->
<g id="node8" class="node"><title>7</title>
<path fill="#399de5" fill-opacity="0.200000" stroke="black" d="M1237.38,-64C1237.38,-64 954.92,-64 954.92,-64 948.92,-64 942.92,-58 942.92,-52 942.92,-52 942.92,-12 942.92,-12 942.92,-6 948.92,-0 954.92,-0 954.92,-0 1237.38,-0 1237.38,-0 1243.38,-0 1249.38,-6 1249.38,-12 1249.38,-12 1249.38,-52 1249.38,-52 1249.38,-58 1243.38,-64 1237.38,-64"/>
<text text-anchor="middle" x="1096.15" y="-48.8" font-family="Helvetica,sans-Serif" font-size="14.00">gini = 0.734</text>
<text text-anchor="middle" x="1096.15" y="-34.8" font-family="Helvetica,sans-Serif" font-size="14.00">samples = 4.6%</text>
<text text-anchor="middle" x="1096.15" y="-20.8" font-family="Helvetica,sans-Serif" font-size="14.00">value = [0.077, 0.077, 0.0, 0.385, 0.231, 0.231]</text>
<text text-anchor="middle" x="1096.15" y="-6.8" font-family="Helvetica,sans-Serif" font-size="14.00">class = other</text>
</g>
<!-- 5&#45;&gt;7 -->
<g id="edge7" class="edge"><title>5&#45;&gt;7</title>
<path fill="none" stroke="black" d="M1044.62,-99.7956C1051.55,-90.8168 1058.94,-81.2341 1065.9,-72.2119"/>
<polygon fill="black" stroke="black" points="1068.81,-74.1728 1072.15,-64.1172 1063.27,-69.8972 1068.81,-74.1728"/>
</g>
<!-- 9 -->
<g id="node10" class="node"><title>9</title>
<path fill="#39e581" fill-opacity="0.250980" stroke="black" d="M1580.17,-178C1580.17,-178 1344.14,-178 1344.14,-178 1338.14,-178 1332.14,-172 1332.14,-166 1332.14,-166 1332.14,-112 1332.14,-112 1332.14,-106 1338.14,-100 1344.14,-100 1344.14,-100 1580.17,-100 1580.17,-100 1586.17,-100 1592.17,-106 1592.17,-112 1592.17,-112 1592.17,-166 1592.17,-166 1592.17,-172 1586.17,-178 1580.17,-178"/>
<text text-anchor="middle" x="1462.15" y="-162.8" font-family="Helvetica,sans-Serif" font-size="14.00">X[877] &lt;= 0.77</text>
<text text-anchor="middle" x="1462.15" y="-148.8" font-family="Helvetica,sans-Serif" font-size="14.00">gini = 0.49</text>
<text text-anchor="middle" x="1462.15" y="-134.8" font-family="Helvetica,sans-Serif" font-size="14.00">samples = 2.5%</text>
<text text-anchor="middle" x="1462.15" y="-120.8" font-family="Helvetica,sans-Serif" font-size="14.00">value = [0.0, 0.0, 0.571, 0.429, 0.0, 0.0]</text>
<text text-anchor="middle" x="1462.15" y="-106.8" font-family="Helvetica,sans-Serif" font-size="14.00">class = motorcycle</text>
</g>
<!-- 8&#45;&gt;9 -->
<g id="edge9" class="edge"><title>8&#45;&gt;9</title>
<path fill="none" stroke="black" d="M1462.15,-213.769C1462.15,-205.57 1462.15,-196.803 1462.15,-188.28"/>
<polygon fill="black" stroke="black" points="1465.65,-188.058 1462.15,-178.058 1458.65,-188.059 1465.65,-188.058"/>
</g>
<!-- 12 -->
<g id="node13" class="node"><title>12</title>
<path fill="#e58139" fill-opacity="0.984314" stroke="black" d="M1994.17,-178C1994.17,-178 1758.14,-178 1758.14,-178 1752.14,-178 1746.14,-172 1746.14,-166 1746.14,-166 1746.14,-112 1746.14,-112 1746.14,-106 1752.14,-100 1758.14,-100 1758.14,-100 1994.17,-100 1994.17,-100 2000.17,-100 2006.17,-106 2006.17,-112 2006.17,-112 2006.17,-166 2006.17,-166 2006.17,-172 2000.17,-178 1994.17,-178"/>
<text text-anchor="middle" x="1876.15" y="-162.8" font-family="Helvetica,sans-Serif" font-size="14.00">X[163] &lt;= 0.603</text>
<text text-anchor="middle" x="1876.15" y="-148.8" font-family="Helvetica,sans-Serif" font-size="14.00">gini = 0.032</text>
<text text-anchor="middle" x="1876.15" y="-134.8" font-family="Helvetica,sans-Serif" font-size="14.00">samples = 22.1%</text>
<text text-anchor="middle" x="1876.15" y="-120.8" font-family="Helvetica,sans-Serif" font-size="14.00">value = [0.984, 0.016, 0.0, 0.0, 0.0, 0.0]</text>
<text text-anchor="middle" x="1876.15" y="-106.8" font-family="Helvetica,sans-Serif" font-size="14.00">class = bike</text>
</g>
<!-- 8&#45;&gt;12 -->
<g id="edge12" class="edge"><title>8&#45;&gt;12</title>
<path fill="none" stroke="black" d="M1602.89,-213.926C1645.93,-202.282 1693.25,-189.482 1736.23,-177.852"/>
<polygon fill="black" stroke="black" points="1737.17,-181.225 1745.91,-175.235 1735.34,-174.468 1737.17,-181.225"/>
</g>
<!-- 10 -->
<g id="node11" class="node"><title>10</title>
<path fill="#399de5" stroke="black" d="M1484.52,-64C1484.52,-64 1279.78,-64 1279.78,-64 1273.78,-64 1267.78,-58 1267.78,-52 1267.78,-52 1267.78,-12 1267.78,-12 1267.78,-6 1273.78,-0 1279.78,-0 1279.78,-0 1484.52,-0 1484.52,-0 1490.52,-0 1496.52,-6 1496.52,-12 1496.52,-12 1496.52,-52 1496.52,-52 1496.52,-58 1490.52,-64 1484.52,-64"/>
<text text-anchor="middle" x="1382.15" y="-48.8" font-family="Helvetica,sans-Serif" font-size="14.00">gini = 0.0</text>
<text text-anchor="middle" x="1382.15" y="-34.8" font-family="Helvetica,sans-Serif" font-size="14.00">samples = 1.1%</text>
<text text-anchor="middle" x="1382.15" y="-20.8" font-family="Helvetica,sans-Serif" font-size="14.00">value = [0.0, 0.0, 0.0, 1.0, 0.0, 0.0]</text>
<text text-anchor="middle" x="1382.15" y="-6.8" font-family="Helvetica,sans-Serif" font-size="14.00">class = other</text>
</g>
<!-- 9&#45;&gt;10 -->
<g id="edge10" class="edge"><title>9&#45;&gt;10</title>
<path fill="none" stroke="black" d="M1433.04,-99.7956C1426.2,-90.8168 1418.9,-81.2341 1412.03,-72.2119"/>
<polygon fill="black" stroke="black" points="1414.71,-69.9503 1405.86,-64.1172 1409.14,-74.1927 1414.71,-69.9503"/>
</g>
<!-- 11 -->
<g id="node12" class="node"><title>11</title>
<path fill="#39e581" stroke="black" d="M1731.52,-64C1731.52,-64 1526.78,-64 1526.78,-64 1520.78,-64 1514.78,-58 1514.78,-52 1514.78,-52 1514.78,-12 1514.78,-12 1514.78,-6 1520.78,-0 1526.78,-0 1526.78,-0 1731.52,-0 1731.52,-0 1737.52,-0 1743.52,-6 1743.52,-12 1743.52,-12 1743.52,-52 1743.52,-52 1743.52,-58 1737.52,-64 1731.52,-64"/>
<text text-anchor="middle" x="1629.15" y="-48.8" font-family="Helvetica,sans-Serif" font-size="14.00">gini = 0.0</text>
<text text-anchor="middle" x="1629.15" y="-34.8" font-family="Helvetica,sans-Serif" font-size="14.00">samples = 1.4%</text>
<text text-anchor="middle" x="1629.15" y="-20.8" font-family="Helvetica,sans-Serif" font-size="14.00">value = [0.0, 0.0, 1.0, 0.0, 0.0, 0.0]</text>
<text text-anchor="middle" x="1629.15" y="-6.8" font-family="Helvetica,sans-Serif" font-size="14.00">class = motorcycle</text>
</g>
<!-- 9&#45;&gt;11 -->
<g id="edge11" class="edge"><title>9&#45;&gt;11</title>
<path fill="none" stroke="black" d="M1522.92,-99.7956C1538.65,-89.9006 1555.56,-79.2722 1571.15,-69.4688"/>
<polygon fill="black" stroke="black" points="1573.06,-72.403 1579.66,-64.1172 1569.33,-66.477 1573.06,-72.403"/>
</g>
<!-- 13 -->
<g id="node14" class="node"><title>13</title>
<path fill="#e58139" stroke="black" d="M1978.52,-64C1978.52,-64 1773.78,-64 1773.78,-64 1767.78,-64 1761.78,-58 1761.78,-52 1761.78,-52 1761.78,-12 1761.78,-12 1761.78,-6 1767.78,-0 1773.78,-0 1773.78,-0 1978.52,-0 1978.52,-0 1984.52,-0 1990.52,-6 1990.52,-12 1990.52,-12 1990.52,-52 1990.52,-52 1990.52,-58 1984.52,-64 1978.52,-64"/>
<text text-anchor="middle" x="1876.15" y="-48.8" font-family="Helvetica,sans-Serif" font-size="14.00">gini = 0.0</text>
<text text-anchor="middle" x="1876.15" y="-34.8" font-family="Helvetica,sans-Serif" font-size="14.00">samples = 21.8%</text>
<text text-anchor="middle" x="1876.15" y="-20.8" font-family="Helvetica,sans-Serif" font-size="14.00">value = [1.0, 0.0, 0.0, 0.0, 0.0, 0.0]</text>
<text text-anchor="middle" x="1876.15" y="-6.8" font-family="Helvetica,sans-Serif" font-size="14.00">class = bike</text>
</g>
<!-- 12&#45;&gt;13 -->
<g id="edge13" class="edge"><title>12&#45;&gt;13</title>
<path fill="none" stroke="black" d="M1876.15,-99.7956C1876.15,-91.4581 1876.15,-82.6 1876.15,-74.1534"/>
<polygon fill="black" stroke="black" points="1879.65,-74.1171 1876.15,-64.1172 1872.65,-74.1172 1879.65,-74.1171"/>
</g>
<!-- 14 -->
<g id="node15" class="node"><title>14</title>
<path fill="#9de539" stroke="black" d="M2225.52,-64C2225.52,-64 2020.78,-64 2020.78,-64 2014.78,-64 2008.78,-58 2008.78,-52 2008.78,-52 2008.78,-12 2008.78,-12 2008.78,-6 2014.78,-0 2020.78,-0 2020.78,-0 2225.52,-0 2225.52,-0 2231.52,-0 2237.52,-6 2237.52,-12 2237.52,-12 2237.52,-52 2237.52,-52 2237.52,-58 2231.52,-64 2225.52,-64"/>
<text text-anchor="middle" x="2123.15" y="-48.8" font-family="Helvetica,sans-Serif" font-size="14.00">gini = 0.0</text>
<text text-anchor="middle" x="2123.15" y="-34.8" font-family="Helvetica,sans-Serif" font-size="14.00">samples = 0.4%</text>
<text text-anchor="middle" x="2123.15" y="-20.8" font-family="Helvetica,sans-Serif" font-size="14.00">value = [0.0, 1.0, 0.0, 0.0, 0.0, 0.0]</text>
<text text-anchor="middle" x="2123.15" y="-6.8" font-family="Helvetica,sans-Serif" font-size="14.00">class = car</text>
</g>
<!-- 12&#45;&gt;14 -->
<g id="edge14" class="edge"><title>12&#45;&gt;14</title>
<path fill="none" stroke="black" d="M1965.67,-99.9441C1990.17,-89.5299 2016.61,-78.2934 2040.69,-68.0555"/>
<polygon fill="black" stroke="black" points="2042.31,-71.1688 2050.15,-64.0355 2039.57,-64.7267 2042.31,-71.1688"/>
</g>
</g>
</svg>
